<?xml version="1.0" standalone="no"?>
<!DOCTYPE svg PUBLIC "-//W3C//DTD SVG 20010904//EN"
 "http://www.w3.org/TR/2001/REC-SVG-20010904/DTD/svg10.dtd">
<svg version="1.0" xmlns="http://www.w3.org/2000/svg"
 width="1080.000000pt" height="1080.000000pt" viewBox="0 0 1080.000000 1080.000000"
 preserveAspectRatio="xMidYMid meet">

<g transform="translate(0.000000,1080.000000) scale(0.100000,-0.100000)"
fill="#000000" stroke="none">
<path d="M5646 7212 c-10 -16 32 -243 64 -342 40 -128 95 -223 169 -293 107
-102 237 -141 400 -119 174 24 185 33 170 142 -12 85 -47 155 -112 221 -72 75
-156 117 -275 139 l-97 17 80 8 c99 10 211 -6 280 -40 98 -47 179 -154 221
-287 10 -32 21 -58 26 -58 11 0 10 78 -3 163 -22 143 -106 270 -213 322 -82
39 -158 55 -376 75 -181 17 -250 29 -311 54 -10 4 -20 3 -23 -2z m149 -55 c55
-9 145 -18 200 -22 144 -9 271 -33 332 -61 58 -28 130 -87 144 -119 5 -11 17
-33 28 -50 21 -35 37 -85 45 -140 l6 -40 -26 53 c-32 68 -115 151 -185 184
-82 40 -148 51 -268 45 -103 -5 -161 -21 -161 -43 0 -13 54 -24 115 -24 53 0
107 -15 180 -49 123 -58 220 -197 220 -316 l0 -60 -40 -13 c-63 -21 -184 -31
-257 -22 -94 11 -170 49 -238 118 -103 105 -164 242 -200 452 -24 138 -24 146
-7 132 6 -5 57 -17 112 -25z"/>
<path d="M4912 5778 l3 -1023 26 -55 c58 -123 158 -178 358 -196 l81 -7 0 126
0 126 -37 7 c-59 10 -90 30 -102 65 -8 23 -11 319 -11 1005 l0 974 -160 0
-160 0 2 -1022z"/>
<path d="M7150 6580 l0 -220 -85 0 -85 0 0 -130 0 -130 85 0 85 0 0 -502 c0
-393 3 -523 15 -593 27 -171 85 -295 176 -379 69 -64 122 -91 220 -112 141
-30 249 2 303 89 24 39 30 62 34 126 3 47 0 81 -6 85 -5 3 -29 -1 -53 -10 -24
-9 -84 -18 -134 -21 -83 -5 -93 -3 -124 19 -19 12 -43 37 -53 55 -41 69 -46
143 -50 706 l-3 537 192 0 193 0 0 130 0 130 -195 0 -195 0 0 220 0 220 -160
0 -160 0 0 -220z"/>
<path d="M1365 6610 c-220 -35 -348 -126 -441 -315 -86 -176 -118 -369 -117
-730 0 -412 41 -629 156 -812 106 -170 270 -246 537 -247 162 -1 257 18 376
75 166 79 224 206 154 341 -44 86 -45 86 -114 19 -117 -112 -235 -169 -369
-178 -151 -11 -258 41 -320 156 -52 94 -96 335 -97 519 l0 42 365 0 365 0 0
130 0 130 -361 0 -362 0 7 97 c16 235 81 406 177 470 108 71 276 70 428 -4 35
-17 85 -57 137 -110 l83 -83 31 38 c31 38 60 115 60 162 0 15 -7 49 -15 77
-41 137 -219 220 -490 228 -71 2 -157 0 -190 -5z"/>
<path d="M6165 6423 c-248 -33 -421 -208 -502 -508 -24 -92 -27 -116 -27 -290
0 -206 13 -307 60 -439 93 -268 310 -471 583 -545 97 -27 268 -44 349 -35 l64
7 -6 41 c-3 22 -8 68 -11 101 -11 113 -3 105 -108 105 -162 0 -282 37 -383
118 -49 39 -134 151 -134 177 0 7 17 16 37 20 71 13 198 57 273 95 259 130
403 355 403 630 0 110 -30 216 -87 303 -102 160 -305 247 -511 220z m249 -43
c228 -79 361 -308 326 -563 -42 -305 -260 -523 -613 -612 -103 -26 -109 -33
-79 -92 47 -90 144 -181 239 -223 66 -29 181 -50 276 -50 l84 0 7 -82 c4 -46
10 -93 12 -104 5 -19 0 -22 -49 -28 -62 -8 -234 8 -317 29 -328 84 -556 335
-627 691 -13 67 -17 135 -17 279 1 171 3 200 26 285 45 166 131 315 222 382
61 45 174 96 236 107 79 14 205 5 274 -19z"/>
<path d="M6142 6173 c-72 -35 -136 -140 -175 -286 -18 -70 -21 -110 -22 -274
0 -238 -3 -232 108 -203 122 31 203 74 278 149 87 88 112 148 113 281 2 211
-89 351 -226 350 -24 0 -58 -8 -76 -17z m146 -17 c67 -35 112 -113 132 -229
42 -240 -98 -429 -368 -498 -41 -10 -78 -16 -81 -13 -3 3 -6 87 -6 187 0 142
4 199 19 262 32 141 90 243 161 286 36 22 105 25 143 5z"/>
<path d="M2644 6346 c-331 -76 -526 -462 -500 -991 23 -464 190 -755 481 -836
70 -20 262 -17 345 5 139 36 231 100 277 194 50 101 32 212 -44 285 l-29 27
-32 -44 c-54 -75 -144 -155 -210 -188 -211 -104 -370 9 -435 310 -17 81 -21
132 -21 307 -1 223 7 292 50 419 32 92 63 143 122 198 58 55 112 73 193 65
107 -9 187 -66 291 -204 l42 -56 36 41 c43 48 60 98 60 176 0 71 -23 118 -85
175 -85 78 -205 119 -375 126 -70 3 -125 0 -166 -9z"/>
<path d="M3923 6350 c-229 -42 -399 -206 -486 -470 -45 -138 -52 -200 -52
-450 0 -262 10 -335 69 -492 102 -272 285 -417 545 -434 183 -12 345 47 465
169 85 86 125 152 171 281 64 177 88 421 66 648 -39 395 -206 650 -481 732
-66 20 -226 29 -297 16z m245 -287 c140 -86 212 -300 212 -633 0 -260 -42
-442 -128 -555 -134 -177 -358 -144 -462 68 -130 266 -112 827 33 1029 68 96
134 131 235 124 47 -3 75 -11 110 -33z"/>
<path d="M8380 6353 c-143 -21 -271 -76 -342 -147 -84 -84 -107 -200 -55 -288
50 -86 54 -85 149 6 207 201 452 235 554 79 33 -51 60 -111 52 -118 -2 -3 -56
-18 -119 -33 -225 -57 -379 -139 -509 -271 -136 -137 -193 -276 -193 -466 1
-296 160 -505 448 -587 116 -32 331 -32 424 1 149 52 225 141 273 319 19 70
21 112 26 461 4 412 -4 552 -39 668 -76 247 -282 385 -569 381 -41 0 -86 -2
-100 -5z m380 -1040 c0 -392 -17 -487 -92 -533 -62 -37 -228 -19 -310 35 -125
83 -157 360 -61 525 44 74 119 145 196 186 72 38 202 82 245 83 l22 1 0 -297z"/>
<path d="M10205 5169 c-152 -194 -522 -429 -925 -588 -398 -157 -983 -315
-1320 -355 -461 -55 -1556 -76 -2845 -55 -985 17 -1566 17 -1785 0 -755 -57
-1389 -176 -2005 -377 -177 -58 -465 -169 -547 -210 -45 -23 -47 -25 -36 -49
6 -14 16 -24 22 -21 677 308 1484 504 2418 588 288 25 515 27 2393 14 1917
-13 2294 6 2881 149 669 162 1201 382 1544 636 87 64 238 209 278 265 l22 32
-24 15 c-23 16 -25 15 -71 -44z"/>
</g>
</svg>
